PathFileType	4	(X/Y/Z)	/Users/itak/Documents/Research/Walk-IL/dataset/trc/00237_00009.trc
DataRate	CameraRate	NumFrames	NumMarkers	Units	OrigDataRate	OrigDataStartFrame	OrigNumFrames
100.000000	100.000000	4	53	mm	100.000000	237	948
Frame#	Time	RPSI			LPSI			L3			STRN			T10			C7			CLAV			RBAK			LBAK			LSHO			LUPA			LAEL			LAOL			LWTS			LWPS			LFRA			LIFD			LHPS			LHTS			RSHO			RUPA			RAEL			RAOL			RWTS			RWPS			RFRA			RIFD			RHTS			RHPS			RBHD			LFHD			RFHD			LBHD			LHIP			RHIP			RASI			LASI			LKNE			LTHI			LANK			LTIP			LTOE			LMT1			LMT5			LHEE			RKNE			RTHI			RANK			RTIP			RTOE			RMT1			RMT5			RHEE			
		X1	Y1	Z1	X2	Y2	Z2	X3	Y3	Z3	X4	Y4	Z4	X5	Y5	Z5	X6	Y6	Z6	X7	Y7	Z7	X8	Y8	Z8	X9	Y9	Z9	X10	Y10	Z10	X11	Y11	Z11	X12	Y12	Z12	X13	Y13	Z13	X14	Y14	Z14	X15	Y15	Z15	X16	Y16	Z16	X17	Y17	Z17	X18	Y18	Z18	X19	Y19	Z19	X20	Y20	Z20	X21	Y21	Z21	X22	Y22	Z22	X23	Y23	Z23	X24	Y24	Z24	X25	Y25	Z25	X26	Y26	Z26	X27	Y27	Z27	X28	Y28	Z28	X29	Y29	Z29	X30	Y30	Z30	X31	Y31	Z31	X32	Y32	Z32	X33	Y33	Z33	X34	Y34	Z34	X35	Y35	Z35	X36	Y36	Z36	X37	Y37	Z37	X38	Y38	Z38	X39	Y39	Z39	X40	Y40	Z40	X41	Y41	Z41	X42	Y42	Z42	X43	Y43	Z43	X44	Y44	Z44	X45	Y45	Z45	X46	Y46	Z46	X47	Y47	Z47	X48	Y48	Z48	X49	Y49	Z49	X50	Y50	Z50	X51	Y51	Z51	X52	Y52	Z52	X53	Y53	Z53	

238	2.37	131.7414855957031	1017.689636230469	714.0156860351562	82.22152709960938	1026.41015625	824.70947265625	104.9176559448242	1111.612670898438	778.6688842773438	-135.7008666992188	1270.681030273438	681.357421875	108.9256820678711	1237.196533203125	765.9235229492188	26.62287902832031	1492.205810546875	733.0205078125	-120.0464859008789	1390.210693359375	682.8992919921875	137.6212005615234	1360.721923828125	696.5657348632812	11.69088268280029	1458.557739257812	845.3607177734375	-91.61289215087891	1452.445068359375	870.5744018554688	-70.30609893798828	1341.287719726562	964.1806030273438	-52.09848403930664	1134.597900390625	1005.272583007812	31.25129508972168	1130.654174804688	978.0671997070312	-81.85121917724609	885.14013671875	946.2278442382812	-74.80396270751953	876.7293701171875	1031.359130859375	-58.04211044311523	1025.42626953125	1022.464660644531	-59.64663314819336	691.6611938476562	973.1958618164062	-73.92104339599609	786.484375	1030.759033203125	-102.1022338867188	780.0743408203125	968.1848754882812	32.07258605957031	1439.127563476562	556.6777954101562	77.24496459960938	1374.2607421875	502.9611511230469	121.0325546264648	1092.801147460938	484.69482421875	130.5323333740234	1091.383911132812	579.4541015625	-15.72369956970215	874.6762084960938	500.4636840820312	53.19122314453125	859.883056640625	453.5571594238281	101.0426330566406	1022.499572753906	469.1865844726562	-27.50813102722168	677.898193359375	504.0167541503906	-45.63865661621094	751.4907836914062	479.3293151855469	19.50027275085449	751.397705078125	446.5267333984375	-26.92414474487305	1651.4794921875	665.7682495117188	-250.7366638183594	1635.794067382812	632.12548828125	-195.0283813476562	1631.169799804688	548.458251953125	-137.4845733642578	1649.858276367188	751.732177734375	-72.99997711181641	968.8804321289062	908.43359375	92.98080444335938	969.1878051757812	576.7484130859375	-13.0462121963501	1011.00732421875	566.3320922851562	-137.8972778320312	1004.131591796875	818.3176879882812	-236.6273651123047	520.976806640625	768.177978515625	-197.9618377685547	647.0482177734375	835.29296875	-342.70849609375	48.39144897460938	707.4138793945312	-284.8319091796875	299.1595764160156	755.8895874023438	-422.5570068359375	136.3443450927734	525.5225219726562	-351.6156311035156	103.5268402099609	543.2359619140625	-430.4388122558594	89.73130798339844	625.2216186523438	-264.0777893066406	34.09487533569336	722.1695556640625	86.52328491210938	483.4112548828125	669.3043212890625	52.3020133972168	737.997314453125	577.1749877929688	266.3226013183594	43.90116119384766	793.7547607421875	100.6594772338867	366.3407897949219	710.7713012695312	53.84101486206055	40.99967575073242	822.4891357421875	106.0948791503906	41.59206771850586	866.6397094726562	160.2759552001953	35.28907012939453	759.0426635742188	325.1172485351562	59.39502716064453	854.3909301757812	
239	2.38	125.2590560913086	1017.125244140625	712.1685791015625	74.53032684326172	1025.765747070312	822.3217163085938	97.78469085693359	1110.631958007812	776.60400390625	-141.3292694091797	1270.1611328125	676.8812255859375	102.297233581543	1236.209594726562	764.0249633789062	20.69359970092773	1491.419799804688	730.518310546875	-125.6296081542969	1389.654663085938	678.6683959960938	131.8653869628906	1359.809204101562	695.090576171875	4.582281112670898	1457.579467773438	842.6282348632812	-99.01657867431641	1451.581909179688	866.7799072265625	-78.81296539306641	1340.309936523438	960.4960327148438	-61.32295989990234	1133.62890625	1001.755798339844	22.23498725891113	1129.49951171875	975.2599487304688	-91.03876495361328	884.1821899414062	942.6580810546875	-84.74404144287109	875.8282470703125	1027.830322265625	-67.63987731933594	1024.499877929688	1018.963562011719	-69.3218994140625	690.7114868164062	970.0217895507812	-84.02046966552734	785.6187133789062	1027.335693359375	-111.6496276855469	779.2000732421875	964.5330810546875	27.93488883972168	1438.496948242188	554.1696166992188	73.58334350585938	1373.6845703125	500.8653869628906	117.7386627197266	1092.280395507812	482.8031311035156	126.303108215332	1090.791625976562	577.6775512695312	-18.90925598144531	873.9465942382812	496.9425354003906	50.6579475402832	859.2810668945312	450.7667541503906	98.03768920898438	1021.967712402344	467.034912109375	-30.25365257263184	677.1087036132812	500.26025390625	-48.25229644775391	750.6746215820312	475.4845275878906	17.20298385620117	750.729736328125	443.3317565917969	-32.14788055419922	1650.954711914062	662.7899169921875	-255.6396789550781	1635.3544921875	627.3276977539062	-199.29541015625	1630.814819335938	544.0999755859375	-143.3843994140625	1649.261962890625	747.8667602539062	-81.44435882568359	967.9127197265625	904.3037719726562	88.11308288574219	968.6403198242188	574.4566650390625	-17.94200134277344	1010.33349609375	562.8720703125	-145.4186706542969	1003.260803222656	813.5025634765625	-242.4333038330078	519.4519653320312	763.4425048828125	-204.5144348144531	645.6685180664062	830.6099243164062	-345.0801086425781	46.21500015258789	704.1630859375	-288.9120178222656	297.1917114257812	751.5555419921875	-424.3018493652344	132.1290893554688	521.0303344726562	-353.2524719238281	99.88721466064453	539.38916015625	-432.3644104003906	86.09848022460938	620.981201171875	-266.312255859375	32.86665725708008	719.3789672851562	83.09462738037109	483.1575927734375	667.0901489257812	48.19560623168945	737.4322509765625	574.5449829101562	266.0393981933594	45.11014938354492	793.7113037109375	97.82701873779297	366.1269836425781	708.8688354492188	53.70538711547852	40.96117782592773	822.4170532226562	105.8366241455078	42.08910751342773	866.3875732421875	160.0540771484375	35.24395751953125	758.8939819335938	324.6588745117188	61.74493789672852	854.2205810546875	
240	2.39	118.5942001342773	1016.599670410156	710.1964721679688	66.72598266601562	1025.24169921875	819.8154296875	90.48851776123047	1109.660034179688	774.4343872070312	-147.0853118896484	1269.7314453125	672.3101806640625	95.49873352050781	1235.239990234375	762.0715942382812	14.67162799835205	1490.693603515625	727.991943359375	-131.2996063232422	1389.167358398438	674.3947143554688	125.9806747436523	1358.905151367188	693.6141357421875	-2.645416975021362	1456.643432617188	839.8524780273438	-106.5306396484375	1450.777954101562	862.9236450195312	-87.45996856689453	1339.35546875	956.7149047851562	-70.73955535888672	1132.670288085938	998.1065063476562	13.01382446289062	1128.3447265625	972.32763671875	-100.4065399169922	883.2324829101562	938.946044921875	-94.88143157958984	874.9397583007812	1024.155517578125	-77.42601776123047	1023.578247070312	1015.3232421875	-79.13809967041016	689.7347412109375	966.6851196289062	-94.34444427490234	784.7590942382812	1023.750610351562	-121.4065856933594	778.3505859375	960.7355346679688	23.73237419128418	1437.912963867188	551.647705078125	69.88420867919922	1373.1396484375	498.775634765625	114.3675689697266	1091.795288085938	480.9059753417969	121.9614639282227	1090.221557617188	575.8861083984375	-22.12420654296875	873.2164306640625	493.3581848144531	48.0924186706543	858.712646484375	447.9232177734375	94.96846008300781	1021.47314453125	464.8617553710938	-33.01381301879883	676.3400268554688	496.3831481933594	-50.86611557006836	749.878662109375	471.5250854492188	14.91461086273193	750.0962524414062	440.0524597167969	-37.42278671264648	1650.503295898438	659.7740478515625	-260.5739440917969	1635.0390625	622.476318359375	-203.6006927490234	1630.56591796875	539.6970825195312	-149.3455200195312	1648.769409179688	743.9441528320312	-89.99520111083984	967.1011352539062	900.0523071289062	83.01847839355469	968.0817260742188	572.0671997070312	-23.00777053833008	1009.700256347656	559.3134765625	-153.06787109375	1002.496398925781	808.5679321289062	-248.32763671875	518.0443115234375	758.6012573242188	-211.1531219482422	644.426025390625	825.7291259765625	-346.8239135742188	44.06995010375977	701.649169921875	-292.7655029296875	295.2772216796875	747.3427734375	-425.8125915527344	126.8118057250977	516.9758911132812	-354.5289001464844	95.48582458496094	536.0325317382812	-433.7912902832031	81.73607635498047	617.3607177734375	-267.8774719238281	32.02844619750977	717.2626342773438	79.51819610595703	482.9537048339844	664.8582763671875	43.84716033935547	736.8753051757812	571.8461303710938	265.6911010742188	46.44210815429688	793.6581420898438	94.88524627685547	365.9801025390625	706.94873046875	53.54126739501953	40.92611694335938	822.3430786132812	105.5438461303711	42.61137771606445	866.1295776367188	159.8008880615234	35.21704483032227	758.7503662109375	324.1138916015625	64.27702331542969	854.0449829101562	
241	2.4	111.7664947509766	1016.132141113281	708.0592041015625	58.84578323364258	1024.878051757812	817.1607055664062	83.05567932128906	1108.722778320312	772.1304321289062	-152.9681549072266	1269.417358398438	667.6406860351562	88.52591705322266	1234.320556640625	760.0447387695312	8.552399635314941	1490.053344726562	725.435546875	-137.0462799072266	1388.775634765625	670.0828857421875	119.9672164916992	1358.037109375	692.1365356445312	-9.994284629821777	1455.77783203125	837.03173828125	-114.1458053588867	1450.05908203125	859.0044555664062	-96.24574279785156	1338.444702148438	952.8311157226562	-80.34923553466797	1131.743286132812	994.3167114257812	3.588257789611816	1127.210205078125	969.2634887695312	-109.9546356201172	882.31103515625	935.0805053710938	-105.2084655761719	874.0859375	1020.326171875	-87.39834594726562	1022.68017578125	1011.533813476562	-89.13148498535156	688.7672119140625	963.1748046875	-104.876106262207	783.9207763671875	1019.995483398438	-131.3803100585938	777.5521240234375	956.78369140625	19.47076606750488	1437.40087890625	549.1094970703125	66.15203857421875	1372.649536132812	496.6921997070312	110.9041900634766	1091.365112304688	479.0103454589844	117.4770355224609	1089.693115234375	574.084228515625	-25.35074424743652	872.4945678710938	489.7207336425781	45.48831558227539	858.1995239257812	445.0302429199219	91.81874847412109	1021.036560058594	462.6736450195312	-35.76567459106445	675.6002807617188	492.3932495117188	-53.48645401000977	749.1217041015625	467.4412841796875	12.63868808746338	749.5189208984375	436.6896057128906	-42.75723648071289	1650.155517578125	656.7161254882812	-265.5516662597656	1634.863403320312	617.5658569335938	-207.9505920410156	1630.439819335938	535.2467651367188	-155.3762054443359	1648.405029296875	739.9594116210938	-98.60711669921875	966.5178833007812	895.6885375976562	77.68384552001953	967.5119018554688	569.5543212890625	-28.25396919250488	1009.120544433594	555.6527099609375	-160.7952880859375	1001.87744140625	803.5091552734375	-254.2840423583984	516.8084106445312	753.7068481445312	-217.8414306640625	643.3787231445312	820.7062377929688	-348.1921691894531	42.08338165283203	699.6835327148438	-296.534912109375	293.5361633300781	743.2083129882812	-427.2066955566406	120.5887832641602	513.1689453125	-355.6053466796875	90.51351165771484	533.0029296875	-434.9202270507812	76.80129241943359	614.138916015625	-269.0492553710938	31.71331596374512	715.6571044921875	75.76284790039062	482.8083801269531	662.6136474609375	39.24477386474609	736.3351440429688	569.0670776367188	265.2628479003906	47.91728210449219	793.5900268554688	91.81691741943359	365.9227905273438	705.0137939453125	53.34205627441406	40.89254760742188	822.266357421875	105.2143783569336	43.15015029907227	865.8655395507812	159.5230102539062	35.21076965332031	758.6160888671875	323.4605407714844	67.01117706298828	853.8623046875	
